<?xml version="1.0" encoding="utf-8"?>
<!-- Generator: Adobe Illustrator 27.5.0, SVG Export Plug-In . SVG Version: 6.00 Build 0)  -->
<svg version="1.1" xmlns="http://www.w3.org/2000/svg" xmlns:xlink="http://www.w3.org/1999/xlink" x="0px" y="0px"
	 viewBox="0 0 750 500" style="enable-background:new 0 0 750 500;" xml:space="preserve">
<g id="BACKGROUND">
	<rect style="fill:#FFFFFF;" width="750" height="2000"/>
	<rect style="fill:#FFFFFF;" width="750" height="2000"/>
</g>
<g id="OBJECTS">
	<g>
		<defs>
			<rect id="SVGID_1_" width="2000" height="2000"/>
		</defs>
		<clipPath id="SVGID_00000147934525440785097640000002925410664317068222_">
			<use xlink:href="#SVGID_1_"  style="overflow:visible;"/>
		</clipPath>
		<g style="clip-path:url(#SVGID_00000147934525440785097640000002925410664317068222_);">
			<path style="opacity:0.29;fill:#CFDBFD;" d="M451.077,113.754c-41.919-10.733-231.309-35.339-196.406,6.184
				s11.702,51.866-20.25,45.058c-41.463-8.835-91.767-12.369-69.21,26.505c24.314,41.901-123.264,46.825-58.822,86.581
				s198.731,65.378,187.246,96.3s-65.171,30.922,15.123,73.329s172.72,26.505,121.206-21.204s123.459,19.437,84.122-26.505
				s-66.681-94.533,0-69.795s132.026,5.359,76.825-45.029s-42.436-67.174-9.504-59.222c32.933,7.951,77.613-21.824,25.665-46.825
				C550.407,151.861,509.738,128.774,451.077,113.754z"/>
			<path style="opacity:0.29;fill:#CFDBFD;" d="M721.189,362.214c-21.073-5.395-116.28-17.765-98.734,3.109
				s5.883,26.073-10.18,22.651c-20.844-4.441-46.132-6.218-34.792,13.324c12.223,21.064-61.965,23.539-29.57,43.525
				s99.903,32.866,94.129,48.41c-5.774,15.545-32.762,15.545,7.602,36.863c40.364,21.318,86.827,13.324,60.931-10.659
				c-25.896-23.983,62.064,9.771,42.289-13.324c-19.775-23.095-33.521-47.522,0-35.086c33.521,12.436,66.37,2.694,38.62-22.636
				c-27.75-25.33-21.333-33.769-4.778-29.771c16.555,3.997,39.016-10.971,12.902-23.539
				C771.123,381.37,750.678,369.764,721.189,362.214z"/>
			<path style="opacity:0.29;fill:#CFDBFD;" d="M86.681-16.161c-21.073-5.395-116.28-17.765-98.734,3.109s5.883,26.073-10.18,22.651
				c-20.844-4.441-46.132-6.218-34.792,13.324c12.223,21.064-61.965,23.539-29.57,43.525s99.903,32.866,94.129,48.41
				s-32.762,15.545,7.602,36.863s86.827,13.324,60.931-10.659s62.064,9.771,42.289-13.324s-33.521-47.522,0-35.086
				s66.37,2.694,38.62-22.636s-21.333-33.769-4.778-29.771s39.016-10.971,12.902-23.539C136.614,2.995,116.17-8.611,86.681-16.161z"
				/>
		</g>
	</g>
	<g>
		<g>
			<path style="fill:#5E63FA;" d="M659.643,235.179V222.36c0-2.423-1.965-4.388-4.388-4.388h-9.089c-1.78,0-3.41-1.067-4.049-2.728
				c-0.477-1.239-1.019-2.445-1.619-3.618c-0.817-1.597-0.524-3.534,0.68-4.864l6.112-6.749c1.627-1.796,1.489-4.571-0.307-6.198
				l-9.502-8.604c-1.796-1.627-4.571-1.489-6.198,0.307l-6.107,6.743c-1.224,1.352-3.151,1.794-4.849,1.128
				c-0.019-0.007-0.038-0.015-0.056-0.022c-1.681-0.657-2.791-2.268-2.791-4.073v-9.097c0-2.423-1.965-4.388-4.388-4.388h-12.818
				c-2.423,0-4.388,1.965-4.388,4.388v9.089c0,1.78-1.067,3.41-2.728,4.05c-1.239,0.477-2.446,1.019-3.618,1.619
				c-1.597,0.817-3.534,0.524-4.863-0.68l-6.749-6.112c-1.796-1.627-4.571-1.489-6.198,0.307l-8.605,9.502
				c-1.627,1.796-1.489,4.571,0.307,6.198l6.744,6.107c1.352,1.224,1.794,3.151,1.128,4.849c-0.007,0.019-0.015,0.037-0.022,0.056
				c-0.657,1.681-2.268,2.791-4.073,2.791h-9.097c-2.423,0-4.388,1.965-4.388,4.388v12.819c0,2.423,1.965,4.388,4.388,4.388h9.089
				c1.78,0,3.41,1.067,4.049,2.728c0.477,1.239,1.019,2.445,1.619,3.618c0.817,1.597,0.524,3.534-0.68,4.864l-6.112,6.749
				c-1.627,1.796-1.489,4.571,0.307,6.198l9.502,8.604c1.796,1.627,4.571,1.489,6.198-0.307l6.106-6.743
				c1.224-1.352,3.151-1.794,4.849-1.128c0.019,0.007,0.037,0.015,0.056,0.022c1.681,0.657,2.792,2.268,2.792,4.073v9.097
				c0,2.423,1.965,4.388,4.388,4.388h12.818c2.423,0,4.388-1.965,4.388-4.388v-9.089c0-1.78,1.067-3.41,2.728-4.049
				c1.239-0.477,2.445-1.019,3.618-1.619c1.597-0.817,3.534-0.524,4.864,0.68l6.749,6.112c1.796,1.627,4.571,1.489,6.198-0.307
				l8.605-9.502c1.627-1.796,1.489-4.571-0.307-6.198l-6.744-6.107c-1.352-1.224-1.794-3.151-1.128-4.849
				c0.007-0.019,0.015-0.037,0.022-0.056c0.657-1.681,2.268-2.791,4.073-2.791h9.097
				C657.678,239.567,659.643,237.602,659.643,235.179z"/>
			<circle style="fill:#97ACFB;" cx="606.683" cy="228.769" r="24.704"/>
			<circle style="fill:none;stroke:#363535;stroke-linejoin:round;stroke-miterlimit:10;" cx="606.683" cy="228.769" r="18.685"/>
			<g>
				<path style="fill:none;stroke:#363535;stroke-linecap:round;stroke-linejoin:round;stroke-miterlimit:10;" d="M598.678,274.67
					c0.007,1.514,0.016,2.544,0.016,2.544"/>
				<path style="fill:none;stroke:#363535;stroke-linecap:round;stroke-linejoin:round;stroke-miterlimit:10;" d="M590.014,259.926
					c0,0,8.761-0.252,8.68,5.554c-0.032,2.273-0.03,5.433-0.021,7.902"/>
				<path style="fill:none;stroke:#363535;stroke-linecap:round;stroke-linejoin:round;stroke-miterlimit:10;" d="M573.809,242.447
					c-0.772-1.923-1.308-3.04-1.308-3.04"/>
				<path style="fill:none;stroke:#363535;stroke-linecap:round;stroke-linejoin:round;stroke-miterlimit:10;" d="M569.481,257.647
					c0,0,7.385-6.647,5.823-11.183c-0.393-1.141-0.775-2.173-1.123-3.074"/>
			</g>
			<g>
				<path style="fill:none;stroke:#363535;stroke-linecap:round;stroke-linejoin:round;stroke-miterlimit:10;" d="M578.768,192.424
					c-1.144-0.992-1.924-1.665-1.924-1.665"/>
				<path style="fill:none;stroke:#363535;stroke-linecap:round;stroke-linejoin:round;stroke-miterlimit:10;" d="M596.731,196.45
					c0,0-6.749,5.931-11.061,2.043c-1.688-1.522-4.066-3.604-5.929-5.224"/>
				<path style="fill:none;stroke:#363535;stroke-linecap:round;stroke-linejoin:round;stroke-miterlimit:10;" d="M616.124,194.959
					c2.604,2.522,6.1,1.583,6.1,1.583"/>
				<path style="fill:none;stroke:#363535;stroke-linecap:round;stroke-linejoin:round;stroke-miterlimit:10;" d="M614.627,181.277
					c0,0,0,8.842,0,11.992"/>
			</g>
		</g>
		<g>
			<path style="fill:#97ACFB;" d="M364.574,154.507c0,0-11.305,2.56-15.138,2.999c-3.05,0.349-7.617,0.245-10.821-5.805
				s-6.951-13.449-15.122-11.83c-8.171,1.619-7.13-17.821,10.385-15.458S364.574,154.507,364.574,154.507z"/>
			<g>
				<g>
					<g>
						<path style="fill:#F1CB45;" d="M418.645,104.7l-6.879,0.228c-0.949-28.549-12.226-44.835-35.493-51.25
							c-11.886-3.276-23.957,0.04-36.737,3.554c-19.663,5.406-41.948,11.53-65.856-7.945c-22.564-18.38-57.597-18.503-80.594-10.849
							c-16.86,5.616-28.056,14.963-30.719,25.648c-2.222,8.916-1.522,16.16,2.143,22.146c6.541,10.686,21.297,15.345,34.869,18.494
							c34.464,7.998,39.379,30.903,39.571,31.874l-6.751,1.337l3.375-0.669l-3.371,0.691c-0.169-0.797-4.478-19.59-34.38-26.53
							c-14.961-3.471-31.316-8.751-39.184-21.605c-4.612-7.534-5.605-16.754-2.952-27.403c3.245-13.017,16.084-24.138,35.223-30.513
							c25.563-8.514,62.404-8.086,87.115,12.043c21.156,17.233,39.872,12.088,59.686,6.644c13.117-3.606,26.679-7.332,40.39-3.551
							C404.334,54.276,417.596,73.136,418.645,104.7z"/>
						<path style="fill:none;stroke:#363535;stroke-linecap:round;stroke-linejoin:round;stroke-miterlimit:10;" d="
							M231.789,130.305c0,0-10.852-19.281-35.818-22.54c-24.966-3.259-36.26-20.905-37.65-35.03
							c-1.39-14.124,11.107-30.916,31.355-36.685s39.421-10.978,64.557-1.008s35.501,31.293,66.575,23.966
							s47.608-17.049,70.47-3.704c22.862,13.345,22.468,42.139,22.468,42.139"/>
					</g>
				</g>
				<g>
					<g>
						<path style="fill:#CB2D63;" d="M244.094,152.584l-6.209,1.23c-2.4,0.476-4.732-1.085-5.207-3.485l-3.567-18.007
							c-0.476-2.4,1.085-4.732,3.485-5.207l6.209-1.23"/>
						<path style="fill:#CB2D63;" d="M412.573,119.209l6.209-1.23c2.4-0.476,3.961-2.807,3.485-5.207L418.7,94.765
							c-0.476-2.4-2.807-3.961-5.207-3.485l-6.209,1.23"/>
					</g>
				</g>
				<g>
					<g>
						<path style="fill:#5E63FA;" d="M392.914,76.164c-2.347-1.467-5.165-1.984-7.881-1.446l-66.137,13.102l-66.137,13.101
							c-2.715,0.538-5.123,2.09-6.734,4.341l-8.253,11.534c-1.748,2.443-2.408,5.499-1.824,8.445l6.274,31.672
							c0.561,2.831,2.223,5.322,4.621,6.927l12.381,8.287c2.398,1.605,5.335,2.192,8.166,1.631l39.65-7.855
							c3.554-0.704,6.525-3.131,7.923-6.474l6.39-15.36c3.155-9.54,12.281-10.591,17.72-3.51l10.759,11.963
							c2.567,2.557,6.238,3.668,9.792,2.964l39.65-7.855c2.831-0.561,5.322-2.223,6.927-4.621l8.287-12.381
							c1.605-2.398,2.192-5.335,1.631-8.166l-6.274-31.672c-0.584-2.946-2.359-5.52-4.906-7.112L392.914,76.164z"/>
						<path style="fill:#97ACFB;" d="M388.057,82.415c-2.12-1.219-4.68-1.624-7.16-1.133l-60.402,11.966l-60.402,11.966
							c-2.48,0.491-4.692,1.842-6.187,3.777l-7.66,9.915c-1.622,2.1-2.262,4.708-1.766,7.207l5.322,26.867
							c0.476,2.401,1.959,4.5,4.123,5.836l11.174,6.896c2.164,1.336,4.832,1.798,7.418,1.286l29.216-5.788
							c2.093-0.415,5.608-1.699,6.45-3.66c2.925-6.81,9.252-22.354,12.843-27.067c2.035-2.671,10.397-4.495,13.176-2.61
							c5.251,3.56,16.051,15.416,21.32,20.438c1.52,1.449,5.608,1.133,7.668,0.725l29.778-5.899
							c2.585-0.512,4.875-1.957,6.367-4.017l7.701-10.635c1.492-2.06,2.062-4.566,1.587-6.967l-5.322-26.867
							c-0.495-2.499-2.08-4.667-4.381-5.99L388.057,82.415z"/>
						<g>
							<defs>
								<path id="SVGID_00000106145539810401173340000015830438438085211562_" d="M388.057,82.415
									c-2.12-1.219-4.68-1.624-7.16-1.133l-60.402,11.966l-60.402,11.966c-2.48,0.491-4.692,1.842-6.187,3.777l-7.66,9.915
									c-1.622,2.1-2.262,4.708-1.766,7.207l5.322,26.867c0.476,2.401,1.959,4.5,4.123,5.836l11.174,6.896
									c2.164,1.336,4.832,1.798,7.418,1.286l29.216-5.788c2.093-0.415,5.608-1.699,6.45-3.66
									c2.925-6.81,9.252-22.354,12.843-27.067c2.035-2.671,10.397-4.495,13.176-2.61c5.251,3.56,16.051,15.416,21.32,20.438
									c1.52,1.449,5.608,1.133,7.668,0.725l29.778-5.899c2.585-0.512,4.875-1.957,6.367-4.017l7.701-10.635
									c1.492-2.06,2.062-4.566,1.587-6.967l-5.322-26.867c-0.495-2.499-2.08-4.667-4.381-5.99L388.057,82.415z"/>
							</defs>
							<clipPath id="SVGID_00000070099046841739630730000017587549935987290769_">
								<use xlink:href="#SVGID_00000106145539810401173340000015830438438085211562_"  style="overflow:visible;"/>
							</clipPath>
							<g style="clip-path:url(#SVGID_00000070099046841739630730000017587549935987290769_);">
								<polygon style="fill:#FFFFFF;" points="239.409,171.507 275.454,94.49 309.215,87.802 269.067,175.362 250.342,179.071 
																	"/>
								<g>
									<polygon style="fill:#FFFFFF;" points="332.35,153.096 368.396,76.078 402.157,69.39 362.008,156.95 343.284,160.66 
																			"/>
									<polygon style="fill:#FFFFFF;" points="368.987,155.568 405.209,70.721 408.687,70.032 378.917,153.601 									"/>
								</g>
								<polygon style="fill:#FFFFFF;" points="276.046,173.979 312.268,89.132 315.746,88.443 285.975,172.012 								"/>
							</g>
						</g>
					</g>
					<g>
						<g>
							<g>
								<g>
									<g>
										<g>
											
												<line style="fill:none;stroke:#363535;stroke-linejoin:round;stroke-miterlimit:10;" x1="240.568" y1="128.565" x2="245.074" y2="151.311"/>
										</g>
										<g>
											<g>
												
													<line style="fill:none;stroke:#363535;stroke-linejoin:round;stroke-miterlimit:10;" x1="407.861" y1="95.425" x2="409.502" y2="103.711"/>
											</g>
											<g>
												
													<line style="fill:none;stroke:#363535;stroke-linejoin:round;stroke-miterlimit:10;" x1="410.27" y1="107.586" x2="412.573" y2="119.209"/>
											</g>
										</g>
									</g>
									
										<line style="fill:none;stroke:#363535;stroke-linecap:round;stroke-linejoin:round;stroke-miterlimit:10;" x1="248.208" y1="160.351" x2="256.941" y2="166.78"/>
								</g>
							</g>
							
								<line style="fill:none;stroke:#363535;stroke-linecap:round;stroke-linejoin:round;stroke-miterlimit:10;" x1="406.268" y1="138.022" x2="411.977" y2="129.345"/>
						</g>
						<g>
							<g>
								
									<line style="fill:none;stroke:#363535;stroke-linejoin:round;stroke-miterlimit:10;" x1="342.761" y1="84.955" x2="379.094" y2="77.757"/>
								
									<line style="fill:none;stroke:#363535;stroke-linejoin:round;stroke-miterlimit:10;" x1="324.362" y1="88.6" x2="336.794" y2="86.137"/>
							</g>
						</g>
					</g>
				</g>
			</g>
		</g>
		<g>
			<g>
				<g>
					<path style="fill:#313332;" d="M505.914,338.887c0,0,13.884-3.294,14.02-3.609s30.057,8.428,30.057,8.428l-6.779,16.356
						l-39.169-16.818L505.914,338.887z"/>
					<g>
						<path style="fill:#CB2D63;" d="M544.459,343.014l-5.901,13.742c-0.993,2.312,0.077,4.991,2.389,5.983l33.798,14.512
							c0.694,0.298,1.439,0.42,2.19,0.352c7.375-0.662,49.127-3.961,68.348,4.292c18.962,8.142,63.26,29.358,72.134,33.618
							c1.399,0.672,3.07,0.635,4.356-0.234c1.646-1.112,3.793-3.462,5.794-8.416c3.568-8.834-2.516-14.378-3.876-15.475
							c-0.154-0.124-0.307-0.23-0.476-0.333c-3.754-2.289-55.693-33.752-84.833-40.176c-26.884-5.927-51.823-2.432-57.033-1.582
							c-0.672,0.11-1.361,0.062-2.014-0.131l-29.395-8.722C547.726,339.787,545.37,340.891,544.459,343.014z"/>
						<g>
							<defs>
								<path id="SVGID_00000093139073700597254370000009615350785710227891_" d="M544.459,343.014l-5.901,13.742
									c-0.993,2.312,0.077,4.991,2.389,5.983l33.798,14.512c0.694,0.298,1.439,0.42,2.19,0.352
									c7.375-0.662,49.127-3.961,68.348,4.292c18.962,8.142,63.26,29.358,72.134,33.618c1.399,0.672,3.07,0.635,4.356-0.234
									c1.646-1.112,3.793-3.462,5.794-8.416c3.568-8.834-2.516-14.378-3.876-15.475c-0.154-0.124-0.307-0.23-0.476-0.333
									c-3.754-2.289-55.693-33.752-84.833-40.176c-26.884-5.927-51.823-2.432-57.033-1.582c-0.672,0.11-1.361,0.062-2.014-0.131
									l-29.395-8.722C547.726,339.787,545.37,340.891,544.459,343.014z"/>
							</defs>
							<clipPath id="SVGID_00000097467571555691650530000003761731732854713768_">
								<use xlink:href="#SVGID_00000093139073700597254370000009615350785710227891_"  style="overflow:visible;"/>
							</clipPath>
							<path style="clip-path:url(#SVGID_00000097467571555691650530000003761731732854713768_);fill:#5E63FA;" d="M640.82,386.907
								c0,0-1.349-10.538,3.406-24.585c4.754-14.047,14.092-16.167,14.092-16.167s76.665,23.666,77.872,44.643
								s-4.029,36.743-13.679,36.616C712.861,427.288,640.82,386.907,640.82,386.907z"/>
						</g>
					</g>
				</g>
				<g>
					<path style="fill:#313332;" d="M498.448,356.278c0,0,7.174,12.335,7.038,12.651s26.811,15.989,26.811,15.989l7.191-16.179
						l-39.169-16.818L498.448,356.278z"/>
					<g>
						<path style="fill:#CB2D63;" d="M527.984,381.383l5.901-13.743c0.993-2.312,3.671-3.381,5.983-2.389l33.798,14.512
							c0.694,0.298,1.295,0.754,1.764,1.345c4.599,5.803,30.961,38.348,50.182,46.601c18.962,8.142,64.853,25.649,74.053,29.15
							c1.45,0.552,2.574,1.789,2.83,3.319c0.328,1.959,0.102,5.134-2.112,9.997c-3.948,8.671-12.157,8.078-13.89,7.847
							c-0.196-0.026-0.378-0.065-0.569-0.116c-4.245-1.146-62.827-17.136-87.553-33.841c-22.812-15.411-37.453-35.9-40.425-40.263
							c-0.383-0.563-0.892-1.03-1.482-1.37l-26.568-15.306C527.895,385.974,527.073,383.505,527.984,381.383z"/>
						<g>
							<defs>
								<path id="SVGID_00000145017231690835508150000013472388805804190355_" d="M527.984,381.383l5.901-13.743
									c0.993-2.312,3.671-3.381,5.983-2.389l33.798,14.512c0.694,0.298,1.295,0.754,1.764,1.345
									c4.599,5.803,30.961,38.348,50.182,46.601c18.962,8.142,64.853,25.649,74.053,29.15c1.45,0.552,2.574,1.789,2.83,3.319
									c0.328,1.959,0.102,5.134-2.112,9.997c-3.948,8.671-12.157,8.078-13.89,7.847c-0.196-0.026-0.378-0.065-0.569-0.116
									c-4.245-1.146-62.827-17.136-87.553-33.841c-22.812-15.411-37.453-35.9-40.425-40.263c-0.383-0.563-0.892-1.03-1.482-1.37
									l-26.568-15.306C527.895,385.974,527.073,383.505,527.984,381.383z"/>
							</defs>
							<clipPath id="SVGID_00000009576154325479781060000006264589522671244175_">
								<use xlink:href="#SVGID_00000145017231690835508150000013472388805804190355_"  style="overflow:visible;"/>
							</clipPath>
							<path style="clip-path:url(#SVGID_00000009576154325479781060000006264589522671244175_);fill:#5E63FA;" d="M626.172,421.022
								c0,0-8.57,6.28-15.48,19.401c-6.911,13.121-2.017,21.351-2.017,21.351s69.957,39.289,85.998,25.718
								c16.042-13.571,23.866-28.225,17.129-35.135S626.172,421.022,626.172,421.022z"/>
						</g>
					</g>
				</g>
			</g>
			<g>
				<g>
					<g>
						<g>
							<path style="fill:#F1CB45;" d="M511.026,349.893l-69.446-29.818c-0.789-0.339-1.153-1.252-0.815-2.041l2.305-5.369
								c0.23-0.535,0.74-0.897,1.321-0.937l23.543-1.623c0.163-0.011,0.326,0.003,0.484,0.043l39.072,9.777
								c0.339,0.085,0.639,0.281,0.852,0.557l10.372,13.416c0.345,0.446,0.421,1.045,0.199,1.563l-5.846,13.616
								C512.729,349.867,511.815,350.231,511.026,349.893z"/>
							<path style="fill:#F1CB45;" d="M509.234,354.068l-69.446-29.818c-0.789-0.339-1.702,0.026-2.041,0.815l-2.305,5.369
								c-0.23,0.535-0.141,1.154,0.23,1.603l15.037,18.188c0.104,0.126,0.227,0.234,0.364,0.322l33.997,21.597
								c0.295,0.187,0.644,0.27,0.991,0.234l16.871-1.719c0.561-0.057,1.048-0.414,1.27-0.933l5.846-13.616
								C510.387,355.32,510.022,354.407,509.234,354.068z"/>
						</g>
					</g>
					<g>
						<g>
							<path style="fill:none;stroke:#363535;stroke-linecap:round;stroke-linejoin:round;stroke-miterlimit:10;" d="
								M484.13,335.087c7.642,2.975,13.274,5.168,13.274,5.168"/>
							<path style="fill:none;stroke:#363535;stroke-linecap:round;stroke-linejoin:round;stroke-miterlimit:10;" d="
								M441.856,316.447c-0.109,1.098,0.094,2.207,1.185,2.636c1.557,0.612,23.127,9.011,38.621,15.044"/>
						</g>
						<g>
							
								<line style="fill:none;stroke:#363535;stroke-linecap:round;stroke-linejoin:round;stroke-miterlimit:10;" x1="464.375" y1="356.599" x2="486.129" y2="370.436"/>
							<path style="fill:none;stroke:#363535;stroke-linecap:round;stroke-linejoin:round;stroke-miterlimit:10;" d="M436.5,330.061
								c0,0-0.414,1.086,0.551,2.188c0.752,0.86,9.549,10.478,13.389,14.676c1.18,1.289,2.521,2.415,3.996,3.352l7.31,4.65"/>
						</g>
					</g>
				</g>
				<g>
					<circle style="fill:#CB2D63;" cx="511.38" cy="353.007" r="19.665"/>
					<circle style="fill:none;stroke:#363535;stroke-linejoin:round;stroke-miterlimit:10;" cx="511.38" cy="353.007" r="13.052"/>
				</g>
			</g>
			<g>
				<g>
					
						<line style="fill:none;stroke:#363535;stroke-linejoin:round;stroke-miterlimit:10;" x1="533.506" y1="384.858" x2="556.091" y2="396.669"/>
					
						<line style="fill:none;stroke:#363535;stroke-linejoin:round;stroke-miterlimit:10;" x1="534.591" y1="382.133" x2="544.798" y2="387.971"/>
					<g>
						<path style="fill:none;stroke:#363535;stroke-linejoin:round;stroke-miterlimit:10;" d="M568.694,410.085
							c0,0,14.85,20.705,36.528,32.8"/>
						<path style="fill:none;stroke:#363535;stroke-linejoin:round;stroke-miterlimit:10;" d="M586.958,425.402
							c0,0,10.817,9.552,18.264,13.459"/>
						<path style="fill:none;stroke:#363535;stroke-linejoin:round;stroke-miterlimit:10;" d="M582.495,421.446
							c0,0-9.769-10.806-10.854-12.977"/>
					</g>
				</g>
				<g>
					
						<line style="fill:none;stroke:#363535;stroke-linejoin:round;stroke-miterlimit:10;" x1="550.888" y1="344.506" x2="575.103" y2="352.456"/>
					
						<line style="fill:none;stroke:#363535;stroke-linejoin:round;stroke-miterlimit:10;" x1="549.691" y1="347.184" x2="560.994" y2="350.429"/>
					<g>
						<path style="fill:none;stroke:#363535;stroke-linejoin:round;stroke-miterlimit:10;" d="M593.508,352.133
							c0,0,25.195-3.797,48.982,3.305"/>
						<path style="fill:none;stroke:#363535;stroke-linejoin:round;stroke-miterlimit:10;" d="M617.222,354.541
							c0,0,14.389,1.091,22.383,3.704"/>
						<path style="fill:none;stroke:#363535;stroke-linejoin:round;stroke-miterlimit:10;" d="M611.274,354.101
							c0,0-14.557,0.535-16.87,1.271"/>
					</g>
				</g>
			</g>
		</g>
		<g>
			<g>
				<g>
					<path style="fill:#97ACFB;" d="M218.756,415.933l14.33,12.729l-7.695,17.554l-20.648,4.524l1.407,6.424
						c0,0,14.399,6.463,31.376,2.743s23.12-22.887,19.903-37.57c-3.217-14.683-18.292-27.506-33.892-24.089
						c-15.601,3.418-26.878,15.596-26.878,15.596l1.454,6.637L218.756,415.933z"/>
					<path style="fill:#97ACFB;" d="M418.376,403.648l-14.33-12.729l7.695-17.554l20.648-4.524l-1.407-6.424
						c0,0-14.399-6.463-31.376-2.743s-23.12,22.887-19.903,37.57c3.217,14.683,18.292,27.506,33.892,24.089
						c15.601-3.418,26.878-15.596,26.878-15.596l-1.454-6.637L418.376,403.648z"/>
				</g>
				<g>
					
						<rect x="241.82" y="394.919" transform="matrix(0.9768 -0.214 0.214 0.9768 -80.2078 77.4895)" style="fill:#97ACFB;" width="151.924" height="28.532"/>
					<g>
						<path style="fill:#CB2D63;" d="M359.357,408.552l-79.605,17.441c-1.801,0.395-3.581-0.746-3.975-2.547l-2.115-9.653
							c-0.395-1.801,0.746-3.581,2.547-3.975l79.605-17.441c1.801-0.395,3.581,0.746,3.975,2.547l2.115,9.653
							C362.298,406.378,361.158,408.157,359.357,408.552z"/>
						<path style="fill:none;stroke:#363535;stroke-linejoin:round;stroke-miterlimit:10;" d="M352.821,406.872l-69.524,15.232
							c-1.801,0.395-3.581-0.746-3.975-2.547l-0.814-3.715c-0.395-1.801,0.746-3.581,2.547-3.975l69.524-15.232
							c1.801-0.395,3.581,0.746,3.975,2.547l0.814,3.715C355.763,404.698,354.622,406.478,352.821,406.872z"/>
					</g>
				</g>
			</g>
			<g>
				<g>
					<path style="fill:none;stroke:#363535;stroke-linejoin:round;stroke-miterlimit:10;" d="M384.061,380.06
						c0,0,3.399-14.12,18.449-17.6"/>
					<path style="fill:none;stroke:#363535;stroke-linejoin:round;stroke-miterlimit:10;" d="M387.152,381.084
						c0,0,1.488-6.57,6.133-9.824"/>
				</g>
				<g>
					<path style="fill:none;stroke:#363535;stroke-linejoin:round;stroke-miterlimit:10;" d="M386.599,404.472
						c0,0,6.232,13.119,21.675,13.428"/>
					<path style="fill:none;stroke:#363535;stroke-linejoin:round;stroke-miterlimit:10;" d="M389.413,402.834
						c0,0,2.808,6.123,8.023,8.352"/>
				</g>
				<g>
					<g>
						<path style="fill:none;stroke:#363535;stroke-linejoin:round;stroke-miterlimit:10;" d="M252.141,439.247
							c0,0-3.399,14.12-18.449,17.6"/>
						<path style="fill:none;stroke:#363535;stroke-linejoin:round;stroke-miterlimit:10;" d="M249.05,438.223
							c0,0-1.488,6.57-6.133,9.824"/>
					</g>
					<g>
						<path style="fill:none;stroke:#363535;stroke-linejoin:round;stroke-miterlimit:10;" d="M249.603,414.835
							c0,0-6.232-13.119-21.675-13.428"/>
						<path style="fill:none;stroke:#363535;stroke-linejoin:round;stroke-miterlimit:10;" d="M246.789,416.473
							c0,0-2.808-6.123-8.023-8.352"/>
					</g>
				</g>
			</g>
		</g>
		<g>
			<g>
				<g>
					<g>
						<g>
							<g>
								<g>
									<path style="fill:#F1CB45;" d="M126.133,299.909l-89.25,8.59c-9.076,0.873-15.725,8.939-14.852,18.015l0,0
										c0.873,9.076,8.939,15.725,18.015,14.852l89.25-8.59L126.133,299.909z"/>
								</g>
							</g>
							
								<ellipse transform="matrix(0.9945 -0.1043 0.1043 0.9945 -32.308 15.0672)" style="fill:#97ACFB;" cx="127.855" cy="316.327" rx="5.78" ry="16.509"/>
						</g>
						<g>
							<path style="fill:#363535;" d="M205.281,338.051c-0.006,0.001-0.012,0.001-0.019,0.002l-41.979,4.04
								c-0.565,0.054-1.129-0.118-1.568-0.479c-0.438-0.362-0.715-0.882-0.769-1.448l-2.372-24.643l-29.706,2.852
								c-1.177,0.113-2.224-0.75-2.337-1.927c-0.112-1.171,0.741-2.212,1.909-2.335c0.006-0.001,0.012-0.001,0.019-0.002
								l31.838-3.056c1.177-0.113,2.224,0.75,2.337,1.927l2.372,24.643l39.847-3.836c1.177-0.113,2.224,0.75,2.337,1.927
								C207.302,336.888,206.449,337.929,205.281,338.051z"/>
						</g>
					</g>
					<g>
						<g>
							<path style="fill:#363535;" d="M26.614,324.152c-0.294,0.031-0.558-0.182-0.588-0.477c-0.009-0.081-0.759-8.149,7.286-10.372
								c0.278-0.083,0.579,0.089,0.659,0.374s-0.088,0.58-0.374,0.659c-7.181,1.985-6.537,8.934-6.506,9.228
								S26.908,324.121,26.614,324.152z"/>
						</g>
						<g>
							<path style="fill:#363535;" d="M75.214,309.278l-37.757,3.961c-0.294,0.031-0.558-0.182-0.588-0.477
								c-0.031-0.294,0.182-0.558,0.477-0.588l37.757-3.961c0.294-0.031,0.558,0.182,0.588,0.477
								C75.722,308.984,75.508,309.247,75.214,309.278z"/>
						</g>
					</g>
				</g>
				<g>
					<path style="fill:#99134F;" d="M168.382,305.491l7.648,79.469c0.273,2.833,2.613,4.734,4.814,3.911l127.882-49.823
						c4.668-2.258,5.101-7.062,1.548-9.581L172.543,300.77C170.166,300.224,168.1,302.567,168.382,305.491z"/>
					<path style="fill:#CB2D63;" d="M167.999,301.843l7.648,79.469c0.273,2.833,2.613,4.734,4.814,3.911l128.685-48.139
						c3.604-1.348,3.119-7.766-0.653-8.632l-136.333-31.33C169.783,296.576,167.718,298.919,167.999,301.843z"/>
					<path style="fill:none;stroke:#363535;stroke-linejoin:round;stroke-miterlimit:10;" d="M170.786,328.972l2.339,24.303
						l40.76-16.905c1.437-0.596,1.13-2.715-0.417-2.879L170.786,328.972z"/>
				</g>
				<g>
					
						<line style="fill:none;stroke:#363535;stroke-linejoin:round;stroke-miterlimit:10;" x1="241.492" y1="357.399" x2="226.286" y2="363.133"/>
					
						<line style="fill:none;stroke:#363535;stroke-linejoin:round;stroke-miterlimit:10;" x1="267.016" y1="342.612" x2="235.458" y2="354.512"/>
					
						<line style="fill:none;stroke:#363535;stroke-linejoin:round;stroke-miterlimit:10;" x1="296.437" y1="336.681" x2="249.453" y2="354.397"/>
				</g>
			</g>
			<path style="fill:none;stroke:#363535;stroke-linecap:round;stroke-linejoin:round;stroke-miterlimit:10;" d="M124.569,326.785
				c1.725,3.996,3.641,5.658,3.641,5.658"/>
			<path style="fill:none;stroke:#363535;stroke-linecap:round;stroke-linejoin:round;stroke-miterlimit:10;" d="M124.032,301.431
				c0,0-3.054,4.581-1.908,15.498c0.187,1.78,0.467,3.385,0.805,4.826"/>
		</g>
		<g>
			<g>
				<g>
					<g>
						<g>
							<path style="fill:#97ACFB;" d="M579.205,125.722l-7.514,20.684l72.395,26.299c5.712,2.075,12.024-0.873,14.099-6.585v0
								c2.075-5.712-0.873-12.024-6.585-14.099L579.205,125.722z"/>
						</g>
						<g>
							<path style="fill:#5E63FA;" d="M570.079,147.784l-5.896-2.142l9.197-25.316l5.897,2.142c0,0,1.823,3.942-1.723,13.703
								C574.054,145.802,570.079,147.784,570.079,147.784z"/>
							
								<ellipse transform="matrix(0.3414 -0.9399 0.9399 0.3414 249.5624 622.0974)" style="fill:#CB2D63;" cx="568.713" cy="132.96" rx="13.467" ry="4.343"/>
						</g>
					</g>
					<g>
						<path style="fill:#363535;" d="M493.663,203.286l-27.08-9.837c-5.457-1.982-8.284-8.035-6.301-13.492l27.298-75.146
							c0.295-0.813,1.195-1.233,2.008-0.938s1.233,1.195,0.938,2.008l-27.298,75.146c-1.392,3.833,0.593,8.084,4.426,9.476
							l27.079,9.837c3.388,1.231,7.147-0.145,8.939-3.272l38.023-66.308c2.552-4.451,7.906-6.411,12.729-4.658l14.823,5.385
							c0.813,0.295,1.233,1.195,0.938,2.008c-0.295,0.813-1.195,1.233-2.008,0.938l-14.823-5.385
							c-3.388-1.231-7.147,0.145-8.94,3.271l-38.023,66.308C503.84,203.078,498.486,205.038,493.663,203.286z"/>
					</g>
					<g>
						<g>
							<path style="fill:#F1CB45;" d="M537.124,43.873c0.416-1.145-0.175-2.411-1.32-2.827l-41.331-15.014
								c-1.145-0.416-2.411,0.175-2.827,1.32l-50.664,139.467c-0.05,0.138-0.084,0.279-0.106,0.419
								c-0.075,0.129-0.141,0.261-0.192,0.401c-1.441,3.966,7.572,10.879,20.13,15.441s23.907,5.045,25.347,1.079
								c0.051-0.14,0.085-0.284,0.11-0.43c0.073-0.121,0.137-0.251,0.188-0.389L537.124,43.873z"/>
							<g>
								
									<ellipse transform="matrix(0.3414 -0.9399 0.9399 0.3414 305.2838 506.9257)" style="fill:#97ACFB;" cx="514.387" cy="35.611" rx="7.64" ry="24.193"/>
								
									<ellipse transform="matrix(0.3414 -0.9399 0.9399 0.3414 305.2838 506.9257)" style="fill:#5E63FA;" cx="514.387" cy="35.611" rx="5.053" ry="16"/>
							</g>
						</g>
					</g>
				</g>
				<g>
					
						<line style="fill:none;stroke:#363535;stroke-linecap:round;stroke-linejoin:round;stroke-miterlimit:10;" x1="639.366" y1="167.242" x2="612.009" y2="157.304"/>
					
						<line style="fill:none;stroke:#363535;stroke-linecap:round;stroke-linejoin:round;stroke-miterlimit:10;" x1="606.661" y1="155.361" x2="588.04" y2="148.597"/>
				</g>
				<g>
					<g>
						
							<line style="fill:none;stroke:#363535;stroke-linecap:round;stroke-linejoin:round;stroke-miterlimit:10;" x1="530.34" y1="50.337" x2="519.163" y2="81.104"/>
						
							<line style="fill:none;stroke:#363535;stroke-linecap:round;stroke-linejoin:round;stroke-miterlimit:10;" x1="524.766" y1="53.897" x2="521.182" y2="63.763"/>
						
							<line style="fill:none;stroke:#363535;stroke-linecap:round;stroke-linejoin:round;stroke-miterlimit:10;" x1="520.185" y1="66.51" x2="516.6" y2="76.376"/>
					</g>
					<g>
						
							<line style="fill:none;stroke:#363535;stroke-linecap:round;stroke-linejoin:round;stroke-miterlimit:10;" x1="465.7" y1="119.6" x2="468.824" y2="111.002"/>
						
							<line style="fill:none;stroke:#363535;stroke-linecap:round;stroke-linejoin:round;stroke-miterlimit:10;" x1="449.107" y1="165.278" x2="462.511" y2="128.379"/>
						
							<line style="fill:none;stroke:#363535;stroke-linecap:round;stroke-linejoin:round;stroke-miterlimit:10;" x1="453.001" y1="166.693" x2="460.905" y2="144.937"/>
						
							<line style="fill:none;stroke:#363535;stroke-linecap:round;stroke-linejoin:round;stroke-miterlimit:10;" x1="457.382" y1="168.284" x2="461.334" y2="157.406"/>
					</g>
				</g>
			</g>
			<g>
				<path style="fill:none;stroke:#363535;stroke-linecap:round;stroke-linejoin:round;stroke-miterlimit:10;" d="M569.157,141.738
					c-1.565,2.469-3.408,4.474-5.042,3.88"/>
				<path style="fill:none;stroke:#363535;stroke-linecap:round;stroke-linejoin:round;stroke-miterlimit:10;" d="M573.311,120.302
					c0,0,4.082,1.483-0.516,14.141c0,0-0.715,1.833-1.81,4.022"/>
			</g>
		</g>
		<g>
			<g>
				<g>
					<g>
						<g>
							<path style="fill:#97ACFB;" d="M271.933,230.911h-84.013v-34.989h84.013c5.211,0,9.434,4.224,9.434,9.434v16.12
								C281.368,226.687,277.144,230.911,271.933,230.911z"/>
							<ellipse style="fill:#CB2D63;" cx="187.921" cy="213.417" rx="4.968" ry="17.494"/>
						</g>
						<path style="fill:#5E63FA;" d="M187.921,222.536h-12.987v-18.237h12.987c0,0,1.675,2.402,1.675,9.357
							C189.595,220.312,187.921,222.536,187.921,222.536z"/>
						<g>
							<g>
								<path style="fill:#97ACFB;" d="M179.164,230.911h-6.906v-34.989h6.906c0,0,3.212,5.537,3.212,17.494
									C182.376,227.509,179.164,230.911,179.164,230.911z"/>
							</g>
							<ellipse style="fill:#CB2D63;" cx="172.258" cy="213.417" rx="4.968" ry="17.494"/>
						</g>
					</g>
					<g>
						<path style="fill:#F1CB45;" d="M269.261,227.509h-69.086c-0.855,0-1.548-0.693-1.548-1.548v-0.219
							c0-0.855,0.693-1.548,1.548-1.548h69.086c0.855,0,1.548,0.693,1.548,1.548v0.219
							C270.809,226.816,270.116,227.509,269.261,227.509z"/>
						<path style="fill:none;stroke:#363535;stroke-width:0.75;stroke-linejoin:round;stroke-miterlimit:10;" d="M269.261,221.411
							h-69.086c-0.855,0-1.548-0.693-1.548-1.548v-0.219c0-0.855,0.693-1.548,1.548-1.548h69.086c0.855,0,1.548,0.693,1.548,1.548
							v0.219C270.809,220.718,270.116,221.411,269.261,221.411z"/>
						<path style="fill:#F1CB45;" d="M269.261,215.313h-69.086c-0.855,0-1.548-0.693-1.548-1.548v-0.219
							c0-0.855,0.693-1.548,1.548-1.548h69.086c0.855,0,1.548,0.693,1.548,1.548v0.219
							C270.809,214.62,270.116,215.313,269.261,215.313z"/>
						<path style="fill:none;stroke:#363535;stroke-width:0.75;stroke-linejoin:round;stroke-miterlimit:10;" d="M269.261,209.215
							h-69.086c-0.855,0-1.548-0.693-1.548-1.548v-0.219c0-0.855,0.693-1.548,1.548-1.548h69.086c0.855,0,1.548,0.693,1.548,1.548
							v0.219C270.809,208.522,270.116,209.215,269.261,209.215z"/>
						<path style="fill:#F1CB45;" d="M269.261,203.117h-69.086c-0.855,0-1.548-0.693-1.548-1.548v-0.219
							c0-0.855,0.693-1.548,1.548-1.548h69.086c0.855,0,1.548,0.693,1.548,1.548v0.219
							C270.809,202.424,270.116,203.117,269.261,203.117z"/>
					</g>
				</g>
				<g>
					<path style="fill:#5E63FA;" d="M173.134,217.44H64.548v-7.57h108.586c0,0,0.729,1.333,0.729,3.785
						C173.863,216.771,173.134,217.44,173.134,217.44z"/>
					<path style="fill:#5E63FA;" d="M69.873,210.763l-6.715-5.335c-0.9-0.715-2.085-0.964-3.197-0.67l-18.767,4.952
						c-1.6,0.422-2.714,1.869-2.714,3.524l0,0c0,1.597,1.04,3.009,2.566,3.481l18.549,5.744c1.134,0.351,2.368,0.128,3.307-0.598
						l6.932-5.361C71.707,215.052,71.725,212.234,69.873,210.763z"/>
				</g>
			</g>
			<g>
				
					<path style="fill:none;stroke:#363535;stroke-width:0.75;stroke-linecap:round;stroke-linejoin:round;stroke-miterlimit:10;" d="
					M175.586,227.509c-1.303,3.176-2.79,3.402-2.79,3.402"/>
				
					<path style="fill:none;stroke:#363535;stroke-width:0.75;stroke-linecap:round;stroke-linejoin:round;stroke-miterlimit:10;" d="
					M172.796,195.923c0,0,4.709,0.717,4.709,17.494c0,4.785-0.383,8.264-0.931,10.792"/>
				
					<path style="fill:none;stroke:#363535;stroke-width:0.75;stroke-linecap:round;stroke-linejoin:round;stroke-miterlimit:10;" d="
					M187.642,195.923c0,0,4.709,0.484,4.709,17.494s-4.709,17.494-4.709,17.494"/>
			</g>
			<g>
				
					<line style="fill:none;stroke:#363535;stroke-linecap:round;stroke-linejoin:round;stroke-miterlimit:10;" x1="69.776" y1="211.997" x2="113.953" y2="211.997"/>
				
					<line style="fill:none;stroke:#363535;stroke-linecap:round;stroke-linejoin:round;stroke-miterlimit:10;" x1="117.984" y1="211.997" x2="125.347" y2="211.997"/>
			</g>
		</g>
	</g>
	<g>
		<g>
			<circle style="fill:#FFFFFF;" cx="340.695" cy="356.599" r="11.951"/>
			<circle style="fill:#FFFFFF;" cx="407.283" cy="173.966" r="11.951"/>
			<circle style="fill:#FFFFFF;" cx="486.45" cy="219.63" r="7.633"/>
			<circle style="fill:#FFFFFF;" cx="524.435" cy="310.102" r="3.817"/>
			<circle style="fill:#FFFFFF;" cx="340.695" cy="318.719" r="3.817"/>
			<circle style="fill:#FFFFFF;" cx="371.171" cy="181.277" r="3.817"/>
			<circle style="fill:#FFFFFF;" cx="378.88" cy="439.247" r="3.817"/>
			<circle style="fill:#FFFFFF;" cx="166.861" cy="263.977" r="12.693"/>
		</g>
		<g>
			<g>
				<circle style="fill:#CB2D63;" cx="675.601" cy="283.043" r="14.468"/>
				<circle style="fill:none;stroke:#363535;stroke-linejoin:round;stroke-miterlimit:10;" cx="699.589" cy="311.403" r="36.443"/>
			</g>
			<g>
				<circle style="fill:#F1CB45;" cx="126.083" cy="160.549" r="10.567"/>
				<circle style="fill:none;stroke:#363535;stroke-linejoin:round;stroke-miterlimit:10;" cx="112.043" cy="137.334" r="26.618"/>
			</g>
			<g>
				<circle style="fill:#F1CB45;" cx="670.754" cy="100.589" r="7.264"/>
				<circle style="fill:none;stroke:#363535;stroke-linejoin:round;stroke-miterlimit:10;" cx="661.103" cy="84.632" r="18.296"/>
			</g>
			<path style="fill:none;stroke:#363535;stroke-linejoin:round;stroke-miterlimit:10;" d="M482.272,446.724l24.067-1.226
				c2.574-0.131,4.468,2.377,3.638,4.817l-7.642,22.465c-0.936,2.752-4.559,3.356-6.338,1.057l-16.425-21.239
				C477.771,450.268,479.331,446.874,482.272,446.724z"/>
			<path style="fill:none;stroke:#363535;stroke-linejoin:round;stroke-miterlimit:10;" d="M387.738,308.908l24.067-1.226
				c2.574-0.131,4.468,2.377,3.638,4.817l-7.642,22.465c-0.936,2.752-4.559,3.356-6.338,1.057l-16.425-21.239
				C383.237,312.451,384.797,309.057,387.738,308.908z"/>
			<path style="fill:none;stroke:#363535;stroke-linejoin:round;stroke-miterlimit:10;" d="M689.506,204.446l24.067-1.226
				c2.574-0.131,4.468,2.377,3.638,4.817l-7.642,22.465c-0.936,2.752-4.559,3.356-6.338,1.057l-16.425-21.239
				C685.005,207.99,686.565,204.596,689.506,204.446z"/>
			<path style="fill:none;stroke:#363535;stroke-linejoin:round;stroke-miterlimit:10;" d="M17.778,253.004l24.067-1.226
				c2.574-0.131,4.468,2.377,3.638,4.817l-7.642,22.465c-0.936,2.752-4.559,3.356-6.338,1.057l-16.425-21.239
				C13.278,256.547,14.837,253.154,17.778,253.004z"/>
			<circle style="fill:none;stroke:#363535;stroke-linejoin:round;stroke-miterlimit:10;" cx="96.343" cy="446.181" r="14.192"/>
			<circle style="fill:#97ACFB;" cx="138.665" cy="399.203" r="7.746"/>
			<circle style="fill:#97ACFB;" cx="83.563" cy="61.926" r="7.746"/>
			<circle style="fill:#97ACFB;" cx="593.022" cy="74.51" r="7.746"/>
		</g>
	</g>
</g>
<g id="TEXTS">
	<g>
		
			<text transform="matrix(1 0 0 1 315.8309 236.0493)" style="fill:#363535; font-family:'Montserrat-Italic'; font-size:32.3806px;">HAPPY</text>
		<g>
			
				<text transform="matrix(1 0 0 1 231.7752 278.6694)" style="fill:#5E63FA; font-family:'Montserrat-Bold'; font-size:40.4597px;">LABOUR DAY</text>
		</g>
	</g>
</g>
</svg>
